<svg width="82" height="82" viewBox="0 0 82 82" fill="none" xmlns="http://www.w3.org/2000/svg">
<g filter="url(#filter0_d)">
<path d="M33 22C26.9344 22 22 26.9344 22 33C22 39.0656 26.9344 44 33 44C39.0656 44 44 39.0656 44 33C44 26.9344 39.0656 22 33 22ZM38.5752 30.6689L32.6168 36.6272C32.438 36.8059 32.2034 36.8959 31.9688 36.8959C31.7341 36.8959 31.4995 36.8059 31.3207 36.6272L28.3416 33.6481C27.9831 33.2897 27.9831 32.7103 28.3416 32.3519C28.6999 31.9934 29.2792 31.9934 29.6377 32.3519L31.9688 34.683L37.2791 29.3728C37.6374 29.0143 38.2167 29.0143 38.5752 29.3728C38.9335 29.7312 38.9335 30.3104 38.5752 30.6689Z" fill="#33C626"/>
</g>
<defs>
<filter id="filter0_d" x="0" y="0" width="82" height="82" filterUnits="userSpaceOnUse" color-interpolation-filters="sRGB">
<feFlood flood-opacity="0" result="BackgroundImageFix"/>
<feColorMatrix in="SourceAlpha" type="matrix" values="0 0 0 0 0 0 0 0 0 0 0 0 0 0 0 0 0 0 127 0" result="hardAlpha"/>
<feOffset dx="8" dy="8"/>
<feGaussianBlur stdDeviation="15"/>
<feColorMatrix type="matrix" values="0 0 0 0 0.2 0 0 0 0 0.776471 0 0 0 0 0.14902 0 0 0 0.4 0"/>
<feBlend mode="normal" in2="BackgroundImageFix" result="effect1_dropShadow"/>
<feBlend mode="normal" in="SourceGraphic" in2="effect1_dropShadow" result="shape"/>
</filter>
</defs>
</svg>
